# xmcd
#
# Track frame offsets: 
#        150
#        12906
#        26512
#        36080
#        48361
#        63678
#        74500
#        89647
#        100321
#        110481
#
# Disc length: 1646 seconds
#
# Revision: 0
# Processed by: cddbd v1.5.2PL0 Copyright (c) Steve Scherf et al.
# Submitted via: ExactAudioCopy v0.99pb5
#
DISCID=89066c0a
DTITLE=Steam Powered Airplane - Walk on By
DYEAR=2005
DGENRE=Bluegrass
TTITLE0=Doreen
TTITLE1=Old Train
TTITLE2=There Ain't Nobody
TTITLE3=Eighteen Wheels
TTITLE4=Last Call
TTITLE5=Hello City Limits
TTITLE6=Walk on By
TTITLE7=Oh, Montana
TTITLE8=Home
TTITLE9=Hughie Traver's - Desnoyer Reel
EXTD=
EXTT0=
EXTT1=
EXTT2=
EXTT3=
EXTT4=
EXTT5=
EXTT6=
EXTT7=
EXTT8=
EXTT9=
PLAYORDER=
